<svg xmlns="http://www.w3.org/2000/svg" viewBox="0 0 800 450" width="800" height="450">
  <defs><linearGradient id="gg3slz" x1="0" y1="0" x2="0.146" y2="0.854">
    <stop offset="0" stop-color="#b45309"/><stop offset="1" stop-color="#f59e0b"/></linearGradient><pattern id="piryjk" width="26" height="26" patternUnits="userSpaceOnUse">
    <circle cx="4" cy="4" r="2" fill="#ffffff" opacity="0.18"/></pattern></defs>
  <rect width="800" height="450" fill="url(#gg3slz)"/>
  <rect width="800" height="450" fill="url(#piryjk)"/>
  <circle cx="656" cy="90" r="126.00000000000001" fill="#ffffff" opacity="0.08"/>
  <circle cx="120" cy="382.5" r="99" fill="#ffffff" opacity="0.07"/>
  <g transform="translate(323.5 130.5) scale(6.375)">
    <path d="M4.26 10.147a60.438 60.438 0 00-.491 6.347A48.62 48.62 0 0112 20.904a48.62 48.62 0 018.232-4.41 60.46 60.46 0 00-.491-6.347m-15.482 0a50.636 50.636 0 00-2.658-.813A59.906 59.906 0 0112 3.493a59.903 59.903 0 0110.399 5.84c-.896.248-1.783.52-2.658.814m-15.482 0A50.717 50.717 0 0112 13.489a50.702 50.702 0 017.74-3.342M6.75 15a.75.75 0 100-1.5.75.75 0 000 1.5zm0 0v-3.675A55.378 55.378 0 0112 8.443m-7.007 11.55A5.981 5.981 0 006.75 15.75v-1.5" fill="none" stroke="#ffffff" stroke-width="1.3"
      stroke-linecap="round" stroke-linejoin="round" opacity="0.95"/></g>
  <text x="400" y="351" font-family="Segoe UI, Arial, sans-serif" font-size="31.500000000000004" font-weight="700" fill="#ffffff" text-anchor="middle" opacity="0.95">KEGIATAN</text>
</svg>