<svg xmlns="http://www.w3.org/2000/svg" viewBox="0 0 800 450" width="800" height="450">
  <defs><linearGradient id="gkexa5" x1="0" y1="0" x2="0.146" y2="0.854">
    <stop offset="0" stop-color="#1e40af"/><stop offset="1" stop-color="#2563eb"/></linearGradient><pattern id="pjokh8" width="26" height="26" patternUnits="userSpaceOnUse">
    <circle cx="4" cy="4" r="2" fill="#ffffff" opacity="0.18"/></pattern></defs>
  <rect width="800" height="450" fill="url(#gkexa5)"/>
  <rect width="800" height="450" fill="url(#pjokh8)"/>
  <circle cx="656" cy="90" r="126.00000000000001" fill="#ffffff" opacity="0.08"/>
  <circle cx="120" cy="382.5" r="99" fill="#ffffff" opacity="0.07"/>
  <g transform="translate(323.5 130.5) scale(6.375)">
    <path d="M9.813 15.904L9 18.75l-.813-2.846a4.5 4.5 0 00-3.09-3.09L2.25 12l2.846-.813a4.5 4.5 0 003.09-3.09L9 5.25l.813 2.846a4.5 4.5 0 003.09 3.09L15.75 12l-2.846.813a4.5 4.5 0 00-3.09 3.09zM18.259 8.715L18 9.75l-.259-1.035a3.375 3.375 0 00-2.455-2.456L14.25 6l1.036-.259a3.375 3.375 0 002.455-2.456L18 2.25l.259 1.035a3.375 3.375 0 002.456 2.456L21.75 6l-1.035.259a3.375 3.375 0 00-2.456 2.456z" fill="none" stroke="#ffffff" stroke-width="1.3"
      stroke-linecap="round" stroke-linejoin="round" opacity="0.95"/></g>
  <text x="400" y="351" font-family="Segoe UI, Arial, sans-serif" font-size="31.500000000000004" font-weight="700" fill="#ffffff" text-anchor="middle" opacity="0.95">PENGUMUMAN</text>
</svg>