<svg xmlns="http://www.w3.org/2000/svg" viewBox="0 0 600 600" width="600" height="600">
  <defs><linearGradient id="g7ovcy" x1="0" y1="0" x2="0.146" y2="0.854">
    <stop offset="0" stop-color="#0f766e"/><stop offset="1" stop-color="#14b8a6"/></linearGradient><pattern id="psv3j3" width="26" height="26" patternUnits="userSpaceOnUse">
    <circle cx="4" cy="4" r="2" fill="#ffffff" opacity="0.18"/></pattern></defs>
  <rect width="600" height="600" fill="url(#g7ovcy)"/>
  <rect width="600" height="600" fill="url(#psv3j3)"/>
  <circle cx="491.99999999999994" cy="120" r="168.00000000000003" fill="#ffffff" opacity="0.08"/>
  <circle cx="90" cy="510" r="132" fill="#ffffff" opacity="0.07"/>
  <g transform="translate(198 174) scale(8.500000000000002)">
    <path d="M12 6.042A8.967 8.967 0 006 3.75c-1.052 0-2.062.18-3 .512v14.25A8.987 8.987 0 016 18c2.305 0 4.408.867 6 2.292m0-14.25a8.966 8.966 0 016-2.292c1.052 0 2.062.18 3 .512v14.25A8.987 8.987 0 0018 18a8.967 8.967 0 00-6 2.292m0-14.25v14.25" fill="none" stroke="#ffffff" stroke-width="1.3"
      stroke-linecap="round" stroke-linejoin="round" opacity="0.95"/></g>
  
</svg>