<svg xmlns="http://www.w3.org/2000/svg" viewBox="0 0 600 600" width="600" height="600">
  <defs><linearGradient id="gurf2y" x1="0" y1="0" x2="0.146" y2="0.854">
    <stop offset="0" stop-color="#b45309"/><stop offset="1" stop-color="#f59e0b"/></linearGradient><pattern id="pvc157" width="26" height="26" patternUnits="userSpaceOnUse">
    <circle cx="4" cy="4" r="2" fill="#ffffff" opacity="0.18"/></pattern></defs>
  <rect width="600" height="600" fill="url(#gurf2y)"/>
  <rect width="600" height="600" fill="url(#pvc157)"/>
  <circle cx="491.99999999999994" cy="120" r="168.00000000000003" fill="#ffffff" opacity="0.08"/>
  <circle cx="90" cy="510" r="132" fill="#ffffff" opacity="0.07"/>
  <g transform="translate(198 174) scale(8.500000000000002)">
    <path d="M3.75 21h16.5M4.5 3h15M5.25 3v18m13.5-18v18M9 6.75h1.5m-1.5 3h1.5m-1.5 3h1.5m3-6H15m-1.5 3H15m-1.5 3H15M9 21v-3.375c0-.621.504-1.125 1.125-1.125h3.75c.621 0 1.125.504 1.125 1.125V21" fill="none" stroke="#ffffff" stroke-width="1.3"
      stroke-linecap="round" stroke-linejoin="round" opacity="0.95"/></g>
  
</svg>