<svg xmlns="http://www.w3.org/2000/svg" viewBox="0 0 600 600" width="600" height="600">
  <defs><linearGradient id="gjhtu6" x1="0" y1="0" x2="0.146" y2="0.854">
    <stop offset="0" stop-color="#1e40af"/><stop offset="1" stop-color="#3b82f6"/></linearGradient><pattern id="pm2wtp" width="26" height="26" patternUnits="userSpaceOnUse">
    <circle cx="4" cy="4" r="2" fill="#ffffff" opacity="0.18"/></pattern></defs>
  <rect width="600" height="600" fill="url(#gjhtu6)"/>
  <rect width="600" height="600" fill="url(#pm2wtp)"/>
  <circle cx="491.99999999999994" cy="120" r="168.00000000000003" fill="#ffffff" opacity="0.08"/>
  <circle cx="90" cy="510" r="132" fill="#ffffff" opacity="0.07"/>
  <g transform="translate(198 174) scale(8.500000000000002)">
    <path d="M2.25 15.75l5.159-5.159a2.25 2.25 0 013.182 0l5.159 5.159m-1.5-1.5l1.409-1.409a2.25 2.25 0 013.182 0l2.909 2.909m-18 3.75h16.5a1.5 1.5 0 001.5-1.5V6a1.5 1.5 0 00-1.5-1.5H3.75A1.5 1.5 0 002.25 6v12a1.5 1.5 0 001.5 1.5z" fill="none" stroke="#ffffff" stroke-width="1.3"
      stroke-linecap="round" stroke-linejoin="round" opacity="0.95"/></g>
  
</svg>