<svg xmlns="http://www.w3.org/2000/svg" viewBox="0 0 600 600" width="600" height="600">
  <defs><linearGradient id="gggall" x1="0" y1="0" x2="0.146" y2="0.854">
    <stop offset="0" stop-color="#7c3aed"/><stop offset="1" stop-color="#a78bfa"/></linearGradient><pattern id="pqif7t" width="26" height="26" patternUnits="userSpaceOnUse">
    <circle cx="4" cy="4" r="2" fill="#ffffff" opacity="0.18"/></pattern></defs>
  <rect width="600" height="600" fill="url(#gggall)"/>
  <rect width="600" height="600" fill="url(#pqif7t)"/>
  <circle cx="491.99999999999994" cy="120" r="168.00000000000003" fill="#ffffff" opacity="0.08"/>
  <circle cx="90" cy="510" r="132" fill="#ffffff" opacity="0.07"/>
  <g transform="translate(198 174) scale(8.500000000000002)">
    <path d="M9.75 3.104v5.714a2.25 2.25 0 01-.659 1.591L5 14.5M9.75 3.104c-.251.023-.501.05-.75.082m.75-.082a24.301 24.301 0 014.5 0m0 0v5.714c0 .597.237 1.17.659 1.591L19.8 15.3M14.25 3.104c.251.023.501.05.75.082M19.8 15.3l-1.57.393A9.065 9.065 0 0112 15a9.065 9.065 0 00-6.23-.693L5 14.5m14.8.8l1.402 1.402c1.232 1.232.65 3.318-1.067 3.611A48.309 48.309 0 0112 21c-2.773 0-5.491-.235-8.135-.687-1.718-.293-2.3-2.379-1.067-3.61L5 14.5" fill="none" stroke="#ffffff" stroke-width="1.3"
      stroke-linecap="round" stroke-linejoin="round" opacity="0.95"/></g>
  
</svg>